<mxfile host="65bd71144e">
    <diagram id="_7BTJjjv6E3-CJLsJ0rF" name="Page-1">
        <mxGraphModel dx="1124" dy="1119" grid="0" gridSize="10" guides="1" tooltips="1" connect="1" arrows="1" fold="1" page="0" pageScale="1" pageWidth="850" pageHeight="1100" math="0" shadow="0">
            <root>
                <mxCell id="0"/>
                <mxCell id="1" parent="0"/>
                <mxCell id="4" value="" style="edgeStyle=none;html=1;strokeWidth=3;" parent="1" source="2" target="3" edge="1">
                    <mxGeometry relative="1" as="geometry"/>
                </mxCell>
                <mxCell id="2" value="&lt;b&gt;&lt;font style=&quot;font-size: 15px;&quot;&gt;User&lt;/font&gt;&lt;/b&gt;" style="rounded=1;whiteSpace=wrap;html=1;strokeWidth=3;" parent="1" vertex="1">
                    <mxGeometry x="350" y="-36" width="100" height="40" as="geometry"/>
                </mxCell>
                <mxCell id="6" value="" style="edgeStyle=none;html=1;strokeWidth=3;" parent="1" source="3" target="5" edge="1">
                    <mxGeometry x="-0.407" y="4" relative="1" as="geometry">
                        <mxPoint as="offset"/>
                    </mxGeometry>
                </mxCell>
                <mxCell id="3" value="&lt;font style=&quot;font-size: 15px;&quot;&gt;Login/Signup&lt;/font&gt;" style="rounded=1;whiteSpace=wrap;html=1;strokeWidth=3;" parent="1" vertex="1">
                    <mxGeometry x="350" y="46" width="100" height="40" as="geometry"/>
                </mxCell>
                <mxCell id="8" value="" style="edgeStyle=none;html=1;strokeWidth=3;" parent="1" source="5" target="7" edge="1">
                    <mxGeometry relative="1" as="geometry"/>
                </mxCell>
                <mxCell id="24" value="New&amp;nbsp;&lt;br&gt;Subscipiton" style="edgeStyle=none;html=1;strokeWidth=3;fontSize=15;" edge="1" parent="1" source="5" target="3">
                    <mxGeometry relative="1" as="geometry"/>
                </mxCell>
                <mxCell id="5" value="&lt;font style=&quot;font-size: 15px;&quot;&gt;Select Plan&lt;/font&gt;" style="rounded=1;whiteSpace=wrap;html=1;strokeWidth=3;" parent="1" vertex="1">
                    <mxGeometry x="353" y="174" width="100" height="40" as="geometry"/>
                </mxCell>
                <mxCell id="10" value="&lt;font style=&quot;font-size: 15px;&quot;&gt;Success&lt;/font&gt;" style="edgeStyle=none;html=1;strokeWidth=3;" parent="1" source="7" target="9" edge="1">
                    <mxGeometry x="-0.3696" relative="1" as="geometry">
                        <Array as="points">
                            <mxPoint x="400" y="370"/>
                        </Array>
                        <mxPoint as="offset"/>
                    </mxGeometry>
                </mxCell>
                <mxCell id="7" value="&lt;font style=&quot;font-size: 15px;&quot;&gt;Payment&amp;nbsp; using Razorpay&lt;/font&gt;" style="rounded=1;whiteSpace=wrap;html=1;strokeWidth=3;" parent="1" vertex="1">
                    <mxGeometry x="350" y="241" width="100" height="67" as="geometry"/>
                </mxCell>
                <mxCell id="19" value="" style="edgeStyle=none;html=1;strokeWidth=3;" parent="1" source="9" target="18" edge="1">
                    <mxGeometry relative="1" as="geometry">
                        <Array as="points">
                            <mxPoint x="110" y="420"/>
                        </Array>
                    </mxGeometry>
                </mxCell>
                <mxCell id="9" value="&lt;font style=&quot;font-size: 15px;&quot;&gt;Subscripionn Activated&lt;/font&gt;" style="rounded=1;whiteSpace=wrap;html=1;fillColor=#6d8764;fontColor=#ffffff;strokeColor=#3A5431;strokeWidth=3;" parent="1" vertex="1">
                    <mxGeometry x="350" y="400" width="100" height="40" as="geometry"/>
                </mxCell>
                <mxCell id="15" value="" style="shape=datastore;whiteSpace=wrap;html=1;fillColor=#60a917;fontColor=#ffffff;strokeColor=#2D7600;strokeWidth=3;" parent="1" vertex="1">
                    <mxGeometry x="220" y="330" width="60" height="60" as="geometry"/>
                </mxCell>
                <mxCell id="21" style="edgeStyle=none;html=1;strokeWidth=3;" parent="1" source="18" edge="1">
                    <mxGeometry relative="1" as="geometry">
                        <mxPoint x="329" y="129" as="targetPoint"/>
                        <Array as="points">
                            <mxPoint x="110" y="131"/>
                        </Array>
                    </mxGeometry>
                </mxCell>
                <mxCell id="23" style="edgeStyle=none;html=1;exitX=1;exitY=0.5;exitDx=0;exitDy=0;entryX=0.5;entryY=0;entryDx=0;entryDy=0;strokeWidth=3;" parent="1" source="18" target="15" edge="1">
                    <mxGeometry relative="1" as="geometry">
                        <Array as="points">
                            <mxPoint x="250" y="290"/>
                        </Array>
                    </mxGeometry>
                </mxCell>
                <mxCell id="18" value="&lt;font style=&quot;font-size: 15px;&quot;&gt;Cancel Subscription&lt;/font&gt;" style="whiteSpace=wrap;html=1;rounded=1;fillColor=#e51400;fontColor=#ffffff;strokeColor=#B20000;" parent="1" vertex="1">
                    <mxGeometry x="50" y="260" width="120" height="60" as="geometry"/>
                </mxCell>
                <mxCell id="22" value="" style="endArrow=classic;html=1;entryX=1;entryY=0.5;entryDx=0;entryDy=0;strokeWidth=3;" parent="1" target="15" edge="1">
                    <mxGeometry width="50" height="50" relative="1" as="geometry">
                        <mxPoint x="400" y="360" as="sourcePoint"/>
                        <mxPoint x="450" y="340" as="targetPoint"/>
                    </mxGeometry>
                </mxCell>
            </root>
        </mxGraphModel>
    </diagram>
</mxfile>